REM MD5 4fc07a3500723d900e0d0be157658712
FILE "Official U.S. PlayStation Magazine Demo Disc 15 (USA).bin" BINARY
  TRACK 01 MODE2/2352
    INDEX 01 00:00:00
  TRACK 02 AUDIO
    INDEX 00 44:57:15
    INDEX 01 44:59:15
  TRACK 03 AUDIO
    INDEX 00 46:24:34
    INDEX 01 46:26:34
  TRACK 04 AUDIO
    INDEX 00 47:27:74
    INDEX 01 47:29:74
  TRACK 05 AUDIO
    INDEX 00 51:48:15
    INDEX 01 51:50:15
  TRACK 06 AUDIO
    INDEX 00 53:30:15
    INDEX 01 53:32:15
REM LEADOUT 53:38:11
